<?xml version="1.0" encoding="utf-8"?>
<!-- Generator: Adobe Illustrator 16.0.3, SVG Export Plug-In . SVG Version: 6.00 Build 0)  -->
<!DOCTYPE svg PUBLIC "-//W3C//DTD SVG 1.1//EN" "http://www.w3.org/Graphics/SVG/1.1/DTD/svg11.dtd">
<svg version="1.1" id="Layer_1" xmlns="http://www.w3.org/2000/svg" xmlns:xlink="http://www.w3.org/1999/xlink" x="0px" y="0px"
	 width="22px" height="20px" viewBox="0 0 22 20" enable-background="new 0 0 22 20" xml:space="preserve">
<g>
	<path fill="#B3B3B3" d="M6.524,6.717v2.558h8.797V6.717c0-1.178,0.958-2.136,2.136-2.136h0.765V2.685
		c0-0.675-0.547-1.221-1.222-1.221H5c-0.674,0-1.221,0.547-1.221,1.221v1.896h0.609C5.567,4.581,6.524,5.54,6.524,6.717z"/>
	<path fill="#B3B3B3" d="M20.077,6.005h-2.543c-0.674,0-1.221,0.547-1.221,1.22v3.105H5.686V7.225c0-0.673-0.547-1.22-1.22-1.22
		H1.923c-0.673,0-1.22,0.547-1.22,1.22v10.09c0,0.674,0.547,1.222,1.22,1.222h2.348h0.195h0.766h0.432v-1.405
		c0-0.552,0.447-0.998,0.999-0.998h8.675c0.551,0,0.998,0.446,0.998,0.998v1.405h0.431h0.767h0.655h1.888
		c0.674,0,1.22-0.548,1.22-1.222V7.225C21.297,6.552,20.751,6.005,20.077,6.005z"/>
</g>
</svg>
